<svg id="Group_16933" data-name="Group 16933" xmlns="http://www.w3.org/2000/svg" xmlns:xlink="http://www.w3.org/1999/xlink" width="24.136" height="29.45" viewBox="0 0 24.136 29.45">
  <defs>
    <clipPath id="clip-path">
      <rect id="Rectangle_138773" data-name="Rectangle 138773" width="24.136" height="29.45" transform="translate(0 0)" fill="#2dc4b4"/>
    </clipPath>
  </defs>
  <g id="Mask_Group_16932" data-name="Mask Group 16932" clip-path="url(#clip-path)">
    <path id="Path_47509" data-name="Path 47509" d="M23.657,3.616,23.6,3.16a.241.241,0,0,0-.258-.21l-.456.036a15.723,15.723,0,0,1-5.421-.5A18.037,18.037,0,0,1,12.458.208L12.2.041a.236.236,0,0,0-.261,0l-.26.167A18.037,18.037,0,0,1,6.672,2.486a15.723,15.723,0,0,1-5.421.5L.8,2.95a.241.241,0,0,0-.258.21l-.058.456C-.149,8.561-.355,13.4,1.1,17.8c1.839,5.571,5.787,9,10.86,11.628a.234.234,0,0,0,.222,0c5.073-2.632,9.021-6.058,10.86-11.628,1.452-4.4,1.246-9.235.618-14.18M21.665,17.344c-1.328,4.023-4.161,7.629-9.6,10.511-5.436-2.882-8.269-6.488-9.6-10.511C1.165,13.389,1.289,8.992,1.827,4.468a17.1,17.1,0,0,0,5.224-.592,19.254,19.254,0,0,0,5.018-2.207,19.254,19.254,0,0,0,5.018,2.207,17.1,17.1,0,0,0,5.224.592c.538,4.524.662,8.921-.644,12.876" transform="translate(0 -0.002)" fill="#2dc4b4" fill-rule="evenodd"/>
    <path id="Path_47510" data-name="Path 47510" d="M483.24,444.37v-2.422a3.078,3.078,0,0,0-2.139-3.007,4.211,4.211,0,0,0-2.817,0,3.082,3.082,0,0,0-2.144,3.006v2.422a1.633,1.633,0,0,0-1.183,1.565v4.459a1.632,1.632,0,0,0,1.627,1.627H482.8a1.632,1.632,0,0,0,1.627-1.627v-4.459a1.633,1.633,0,0,0-1.183-1.565m-2.644,5.758h-1.812l.43-1.815a1.109,1.109,0,1,1,.953,0Zm1.382-5.82H477.4v-2.36a1.875,1.875,0,0,1,1.311-1.823,2.932,2.932,0,0,1,1.959,0,1.872,1.872,0,0,1,1.306,1.824Z" transform="translate(-467.622 -431.924)" fill="#2dc4b4" fill-rule="evenodd"/>
  </g>
</svg>
